<?xml version="1.0" encoding="UTF-8" standalone="no"?>
<!DOCTYPE svg PUBLIC "-//W3C//DTD SVG 1.1//EN" "http://www.w3.org/Graphics/SVG/1.1/DTD/svg11.dtd">
<svg width="100%" height="100%" viewBox="0 0 782 515" version="1.1" xmlns="http://www.w3.org/2000/svg" xmlns:xlink="http://www.w3.org/1999/xlink" xml:space="preserve" xmlns:serif="http://www.serif.com/" style="fill-rule:evenodd;clip-rule:evenodd;stroke-linecap:round;stroke-linejoin:round;stroke-miterlimit:1.5;">
    <g transform="matrix(0.989483,0,0,0.983623,2.76593,0.735931)">
        <rect id="ArtBoard1" x="-2.795" y="-0.748" width="789.897" height="522.718" style="fill:none;"/>
        <clipPath id="_clip1">
            <rect id="ArtBoard11" serif:id="ArtBoard1" x="-2.795" y="-0.748" width="789.897" height="522.718"/>
        </clipPath>
        <g clip-path="url(#_clip1)">
            <g transform="matrix(0.609194,0,0,1.06866,-283.047,-499.739)">
                <rect x="469.25" y="472.017" width="1278.01" height="478.696" style="fill:#c6ebff;"/>
                <path d="M1756.24,955.866L460.264,955.866L460.264,466.864L1756.24,466.864L1756.24,955.866ZM1747.26,472.017L469.25,472.017L469.25,950.713L1747.26,950.713L1747.26,472.017Z" style="fill:#061648;"/>
            </g>
            <g transform="matrix(1.01063,0,0,1.01665,-471.225,-187.962)">
                <g transform="matrix(0.678186,0,0,1,146.641,-12)">
                    <rect x="527.138" y="598.927" width="1030.87" height="69.021" style="fill:#dde5f2;stroke:#061648;stroke-width:4.72px;stroke-dasharray:14.17,9.45,0,0;"/>
                </g>
                <g transform="matrix(1,0,0,1,-21.6793,95.2603)">
                    <g transform="matrix(50,0,0,50,540.497,538.812)">
                        <path d="M0.031,-0.155L0.118,-0.168C0.123,-0.134 0.136,-0.107 0.158,-0.088C0.181,-0.07 0.212,-0.061 0.252,-0.061C0.292,-0.061 0.322,-0.069 0.342,-0.085C0.361,-0.102 0.371,-0.121 0.371,-0.143C0.371,-0.163 0.362,-0.179 0.345,-0.19C0.333,-0.198 0.303,-0.208 0.255,-0.22C0.191,-0.236 0.146,-0.25 0.121,-0.262C0.096,-0.274 0.078,-0.29 0.065,-0.311C0.052,-0.332 0.045,-0.355 0.045,-0.381C0.045,-0.404 0.051,-0.425 0.061,-0.445C0.072,-0.465 0.086,-0.481 0.104,-0.494C0.118,-0.504 0.137,-0.513 0.16,-0.52C0.184,-0.527 0.209,-0.53 0.236,-0.53C0.277,-0.53 0.313,-0.524 0.344,-0.513C0.374,-0.501 0.397,-0.485 0.412,-0.465C0.426,-0.445 0.436,-0.418 0.442,-0.385L0.356,-0.373C0.352,-0.4 0.341,-0.421 0.322,-0.436C0.303,-0.451 0.277,-0.458 0.243,-0.458C0.202,-0.458 0.174,-0.451 0.156,-0.438C0.139,-0.425 0.13,-0.409 0.13,-0.391C0.13,-0.38 0.134,-0.369 0.141,-0.36C0.148,-0.351 0.16,-0.343 0.175,-0.337C0.184,-0.334 0.209,-0.326 0.252,-0.314C0.315,-0.298 0.358,-0.284 0.383,-0.274C0.407,-0.263 0.426,-0.248 0.44,-0.228C0.454,-0.207 0.461,-0.182 0.461,-0.152C0.461,-0.123 0.453,-0.095 0.436,-0.07C0.419,-0.044 0.394,-0.024 0.362,-0.01C0.33,0.005 0.293,0.012 0.252,0.012C0.185,0.012 0.134,-0.002 0.098,-0.03C0.063,-0.058 0.041,-0.1 0.031,-0.155Z" style="fill:#061648;fill-rule:nonzero;"/>
                    </g>
                    <g transform="matrix(50,0,0,50,565.497,538.812)">
                        <path d="M0.258,-0.079L0.271,-0.001C0.246,0.004 0.224,0.007 0.204,0.007C0.172,0.007 0.147,0.002 0.13,-0.008C0.112,-0.018 0.1,-0.032 0.093,-0.048C0.086,-0.065 0.082,-0.099 0.082,-0.152L0.082,-0.45L0.018,-0.45L0.018,-0.519L0.082,-0.519L0.082,-0.647L0.169,-0.7L0.169,-0.519L0.258,-0.519L0.258,-0.45L0.169,-0.45L0.169,-0.147C0.169,-0.122 0.171,-0.106 0.174,-0.099C0.177,-0.091 0.182,-0.086 0.189,-0.082C0.196,-0.077 0.206,-0.075 0.219,-0.075C0.229,-0.075 0.242,-0.076 0.258,-0.079Z" style="fill:#061648;fill-rule:nonzero;"/>
                    </g>
                    <g transform="matrix(50,0,0,50,579.389,538.812)">
                        <path d="M0.033,-0.259C0.033,-0.355 0.06,-0.426 0.113,-0.473C0.158,-0.511 0.212,-0.53 0.276,-0.53C0.348,-0.53 0.406,-0.507 0.451,-0.46C0.496,-0.413 0.519,-0.349 0.519,-0.267C0.519,-0.2 0.509,-0.147 0.489,-0.109C0.469,-0.071 0.44,-0.041 0.402,-0.02C0.363,0.001 0.322,0.012 0.276,0.012C0.204,0.012 0.145,-0.012 0.1,-0.058C0.056,-0.105 0.033,-0.172 0.033,-0.259ZM0.124,-0.259C0.124,-0.193 0.138,-0.143 0.167,-0.11C0.196,-0.077 0.232,-0.061 0.276,-0.061C0.32,-0.061 0.356,-0.077 0.385,-0.11C0.414,-0.144 0.429,-0.194 0.429,-0.262C0.429,-0.326 0.414,-0.375 0.385,-0.408C0.356,-0.441 0.32,-0.458 0.276,-0.458C0.232,-0.458 0.196,-0.441 0.167,-0.408C0.138,-0.375 0.124,-0.326 0.124,-0.259Z" style="fill:#061648;fill-rule:nonzero;"/>
                    </g>
                    <g transform="matrix(50,0,0,50,607.197,538.812)">
                        <path d="M0.066,0.199L0.066,-0.519L0.146,-0.519L0.146,-0.451C0.165,-0.478 0.186,-0.497 0.21,-0.51C0.234,-0.524 0.263,-0.53 0.296,-0.53C0.341,-0.53 0.38,-0.519 0.414,-0.496C0.447,-0.473 0.473,-0.441 0.49,-0.4C0.507,-0.358 0.516,-0.313 0.516,-0.263C0.516,-0.21 0.507,-0.162 0.488,-0.12C0.469,-0.077 0.441,-0.045 0.405,-0.022C0.368,0 0.33,0.012 0.29,0.012C0.261,0.012 0.234,0.006 0.211,-0.007C0.188,-0.019 0.169,-0.035 0.154,-0.054L0.154,0.199L0.066,0.199ZM0.146,-0.256C0.146,-0.19 0.159,-0.14 0.186,-0.108C0.213,-0.076 0.246,-0.061 0.284,-0.061C0.323,-0.061 0.357,-0.077 0.385,-0.11C0.412,-0.143 0.426,-0.194 0.426,-0.264C0.426,-0.33 0.413,-0.379 0.385,-0.412C0.358,-0.445 0.326,-0.461 0.288,-0.461C0.251,-0.461 0.218,-0.444 0.189,-0.409C0.16,-0.374 0.146,-0.323 0.146,-0.256Z" style="fill:#061648;fill-rule:nonzero;"/>
                    </g>
                    <g transform="matrix(50,0,0,50,635.004,538.812)">
                        <path d="M0.066,0.199L0.066,-0.519L0.146,-0.519L0.146,-0.451C0.165,-0.478 0.186,-0.497 0.21,-0.51C0.234,-0.524 0.263,-0.53 0.296,-0.53C0.341,-0.53 0.38,-0.519 0.414,-0.496C0.447,-0.473 0.473,-0.441 0.49,-0.4C0.507,-0.358 0.516,-0.313 0.516,-0.263C0.516,-0.21 0.507,-0.162 0.488,-0.12C0.469,-0.077 0.441,-0.045 0.405,-0.022C0.368,0 0.33,0.012 0.29,0.012C0.261,0.012 0.234,0.006 0.211,-0.007C0.188,-0.019 0.169,-0.035 0.154,-0.054L0.154,0.199L0.066,0.199ZM0.146,-0.256C0.146,-0.19 0.159,-0.14 0.186,-0.108C0.213,-0.076 0.246,-0.061 0.284,-0.061C0.323,-0.061 0.357,-0.077 0.385,-0.11C0.412,-0.143 0.426,-0.194 0.426,-0.264C0.426,-0.33 0.413,-0.379 0.385,-0.412C0.358,-0.445 0.326,-0.461 0.288,-0.461C0.251,-0.461 0.218,-0.444 0.189,-0.409C0.16,-0.374 0.146,-0.323 0.146,-0.256Z" style="fill:#061648;fill-rule:nonzero;"/>
                    </g>
                    <g transform="matrix(50,0,0,50,662.812,538.812)">
                        <path d="M0.066,-0.615L0.066,-0.716L0.154,-0.716L0.154,-0.615L0.066,-0.615ZM0.066,-0L0.066,-0.519L0.154,-0.519L0.154,-0L0.066,-0Z" style="fill:#061648;fill-rule:nonzero;"/>
                    </g>
                    <g transform="matrix(50,0,0,50,673.92,538.812)">
                        <path d="M0.066,-0L0.066,-0.519L0.145,-0.519L0.145,-0.445C0.183,-0.502 0.238,-0.53 0.31,-0.53C0.341,-0.53 0.37,-0.525 0.396,-0.513C0.422,-0.502 0.442,-0.487 0.455,-0.469C0.468,-0.451 0.477,-0.429 0.482,-0.404C0.486,-0.388 0.487,-0.36 0.487,-0.319L0.487,-0L0.399,-0L0.399,-0.315C0.399,-0.351 0.396,-0.378 0.389,-0.396C0.382,-0.413 0.37,-0.428 0.353,-0.438C0.335,-0.449 0.315,-0.454 0.292,-0.454C0.254,-0.454 0.222,-0.442 0.195,-0.418C0.167,-0.395 0.154,-0.35 0.154,-0.283L0.154,-0L0.066,-0Z" style="fill:#061648;fill-rule:nonzero;"/>
                    </g>
                    <g transform="matrix(50,0,0,50,701.728,538.812)">
                        <path d="M0.05,0.043L0.135,0.056C0.139,0.082 0.149,0.101 0.165,0.113C0.187,0.13 0.217,0.138 0.254,0.138C0.295,0.138 0.326,0.13 0.349,0.113C0.371,0.097 0.386,0.074 0.394,0.045C0.398,0.027 0.4,-0.011 0.4,-0.068C0.361,-0.023 0.314,-0 0.256,-0C0.185,-0 0.13,-0.026 0.091,-0.077C0.052,-0.129 0.032,-0.19 0.032,-0.262C0.032,-0.312 0.041,-0.357 0.059,-0.399C0.077,-0.441 0.103,-0.473 0.137,-0.496C0.171,-0.519 0.211,-0.53 0.257,-0.53C0.318,-0.53 0.368,-0.506 0.408,-0.456L0.408,-0.519L0.489,-0.519L0.489,-0.07C0.489,0.01 0.481,0.068 0.465,0.101C0.448,0.135 0.422,0.162 0.386,0.181C0.351,0.201 0.307,0.21 0.255,0.21C0.193,0.21 0.143,0.197 0.105,0.169C0.067,0.141 0.049,0.099 0.05,0.043ZM0.123,-0.269C0.123,-0.201 0.136,-0.151 0.163,-0.12C0.19,-0.088 0.224,-0.073 0.265,-0.073C0.305,-0.073 0.339,-0.088 0.366,-0.119C0.394,-0.15 0.407,-0.199 0.407,-0.266C0.407,-0.329 0.393,-0.377 0.365,-0.409C0.337,-0.441 0.303,-0.458 0.263,-0.458C0.224,-0.458 0.191,-0.442 0.164,-0.41C0.136,-0.378 0.123,-0.331 0.123,-0.269Z" style="fill:#061648;fill-rule:nonzero;"/>
                    </g>
                    <g transform="matrix(50,0,0,50,743.427,538.812)">
                        <path d="M0.404,-0.19L0.491,-0.179C0.481,-0.119 0.457,-0.073 0.418,-0.039C0.379,-0.005 0.332,0.012 0.275,0.012C0.204,0.012 0.147,-0.011 0.104,-0.058C0.061,-0.104 0.039,-0.171 0.039,-0.257C0.039,-0.313 0.048,-0.362 0.067,-0.404C0.085,-0.446 0.114,-0.478 0.152,-0.499C0.19,-0.52 0.231,-0.53 0.275,-0.53C0.332,-0.53 0.378,-0.516 0.414,-0.488C0.449,-0.459 0.472,-0.419 0.482,-0.366L0.397,-0.353C0.389,-0.388 0.374,-0.414 0.354,-0.432C0.333,-0.449 0.308,-0.458 0.279,-0.458C0.235,-0.458 0.199,-0.442 0.171,-0.41C0.143,-0.379 0.129,-0.328 0.129,-0.26C0.129,-0.19 0.143,-0.139 0.169,-0.108C0.196,-0.076 0.231,-0.061 0.274,-0.061C0.308,-0.061 0.337,-0.071 0.36,-0.092C0.383,-0.113 0.398,-0.146 0.404,-0.19Z" style="fill:#061648;fill-rule:nonzero;"/>
                    </g>
                    <g transform="matrix(50,0,0,50,768.427,538.812)">
                        <path d="M0.065,-0L0.065,-0.519L0.144,-0.519L0.144,-0.44C0.164,-0.477 0.183,-0.501 0.2,-0.513C0.217,-0.524 0.236,-0.53 0.256,-0.53C0.286,-0.53 0.316,-0.521 0.347,-0.502L0.316,-0.42C0.295,-0.433 0.273,-0.439 0.252,-0.439C0.233,-0.439 0.215,-0.434 0.2,-0.422C0.185,-0.411 0.174,-0.395 0.167,-0.374C0.158,-0.343 0.153,-0.309 0.153,-0.271L0.153,-0L0.065,-0Z" style="fill:#061648;fill-rule:nonzero;"/>
                    </g>
                    <g transform="matrix(50,0,0,50,785.078,538.812)">
                        <path d="M0.066,-0.615L0.066,-0.716L0.154,-0.716L0.154,-0.615L0.066,-0.615ZM0.066,-0L0.066,-0.519L0.154,-0.519L0.154,-0L0.066,-0Z" style="fill:#061648;fill-rule:nonzero;"/>
                    </g>
                    <g transform="matrix(50,0,0,50,796.186,538.812)">
                        <path d="M0.258,-0.079L0.271,-0.001C0.246,0.004 0.224,0.007 0.204,0.007C0.172,0.007 0.147,0.002 0.13,-0.008C0.112,-0.018 0.1,-0.032 0.093,-0.048C0.086,-0.065 0.082,-0.099 0.082,-0.152L0.082,-0.45L0.018,-0.45L0.018,-0.519L0.082,-0.519L0.082,-0.647L0.169,-0.7L0.169,-0.519L0.258,-0.519L0.258,-0.45L0.169,-0.45L0.169,-0.147C0.169,-0.122 0.171,-0.106 0.174,-0.099C0.177,-0.091 0.182,-0.086 0.189,-0.082C0.196,-0.077 0.206,-0.075 0.219,-0.075C0.229,-0.075 0.242,-0.076 0.258,-0.079Z" style="fill:#061648;fill-rule:nonzero;"/>
                    </g>
                    <g transform="matrix(50,0,0,50,810.078,538.812)">
                        <path d="M0.421,-0.167L0.512,-0.156C0.497,-0.103 0.471,-0.062 0.432,-0.032C0.393,-0.003 0.344,0.012 0.284,0.012C0.208,0.012 0.148,-0.012 0.103,-0.058C0.059,-0.105 0.037,-0.171 0.037,-0.255C0.037,-0.342 0.059,-0.41 0.104,-0.458C0.149,-0.506 0.207,-0.53 0.279,-0.53C0.348,-0.53 0.405,-0.507 0.449,-0.459C0.493,-0.412 0.515,-0.346 0.515,-0.26C0.515,-0.255 0.514,-0.247 0.514,-0.237L0.127,-0.237C0.131,-0.18 0.147,-0.136 0.176,-0.106C0.205,-0.076 0.241,-0.061 0.284,-0.061C0.316,-0.061 0.344,-0.069 0.367,-0.086C0.389,-0.103 0.408,-0.13 0.421,-0.167ZM0.132,-0.309L0.422,-0.309C0.418,-0.353 0.407,-0.385 0.389,-0.407C0.361,-0.441 0.324,-0.458 0.28,-0.458C0.239,-0.458 0.205,-0.444 0.178,-0.417C0.15,-0.39 0.135,-0.354 0.132,-0.309Z" style="fill:#061648;fill-rule:nonzero;"/>
                    </g>
                    <g transform="matrix(50,0,0,50,837.885,538.812)">
                        <path d="M0.065,-0L0.065,-0.519L0.144,-0.519L0.144,-0.44C0.164,-0.477 0.183,-0.501 0.2,-0.513C0.217,-0.524 0.236,-0.53 0.256,-0.53C0.286,-0.53 0.316,-0.521 0.347,-0.502L0.316,-0.42C0.295,-0.433 0.273,-0.439 0.252,-0.439C0.233,-0.439 0.215,-0.434 0.2,-0.422C0.185,-0.411 0.174,-0.395 0.167,-0.374C0.158,-0.343 0.153,-0.309 0.153,-0.271L0.153,-0L0.065,-0Z" style="fill:#061648;fill-rule:nonzero;"/>
                    </g>
                    <g transform="matrix(50,0,0,50,854.536,538.812)">
                        <path d="M0.066,-0.615L0.066,-0.716L0.154,-0.716L0.154,-0.615L0.066,-0.615ZM0.066,-0L0.066,-0.519L0.154,-0.519L0.154,-0L0.066,-0Z" style="fill:#061648;fill-rule:nonzero;"/>
                    </g>
                    <g transform="matrix(50,0,0,50,865.644,538.812)">
                        <path d="M0.033,-0.259C0.033,-0.355 0.06,-0.426 0.113,-0.473C0.158,-0.511 0.212,-0.53 0.276,-0.53C0.348,-0.53 0.406,-0.507 0.451,-0.46C0.496,-0.413 0.519,-0.349 0.519,-0.267C0.519,-0.2 0.509,-0.147 0.489,-0.109C0.469,-0.071 0.44,-0.041 0.402,-0.02C0.363,0.001 0.322,0.012 0.276,0.012C0.204,0.012 0.145,-0.012 0.1,-0.058C0.056,-0.105 0.033,-0.172 0.033,-0.259ZM0.124,-0.259C0.124,-0.193 0.138,-0.143 0.167,-0.11C0.196,-0.077 0.232,-0.061 0.276,-0.061C0.32,-0.061 0.356,-0.077 0.385,-0.11C0.414,-0.144 0.429,-0.194 0.429,-0.262C0.429,-0.326 0.414,-0.375 0.385,-0.408C0.356,-0.441 0.32,-0.458 0.276,-0.458C0.232,-0.458 0.196,-0.441 0.167,-0.408C0.138,-0.375 0.124,-0.326 0.124,-0.259Z" style="fill:#061648;fill-rule:nonzero;"/>
                    </g>
                    <g transform="matrix(50,0,0,50,893.452,538.812)">
                        <path d="M0.066,-0L0.066,-0.519L0.145,-0.519L0.145,-0.445C0.183,-0.502 0.238,-0.53 0.31,-0.53C0.341,-0.53 0.37,-0.525 0.396,-0.513C0.422,-0.502 0.442,-0.487 0.455,-0.469C0.468,-0.451 0.477,-0.429 0.482,-0.404C0.486,-0.388 0.487,-0.36 0.487,-0.319L0.487,-0L0.399,-0L0.399,-0.315C0.399,-0.351 0.396,-0.378 0.389,-0.396C0.382,-0.413 0.37,-0.428 0.353,-0.438C0.335,-0.449 0.315,-0.454 0.292,-0.454C0.254,-0.454 0.222,-0.442 0.195,-0.418C0.167,-0.395 0.154,-0.35 0.154,-0.283L0.154,-0L0.066,-0Z" style="fill:#061648;fill-rule:nonzero;"/>
                    </g>
                </g>
            </g>
            <g transform="matrix(1.01063,0,0,1.01665,-471.225,-364.733)">
                <g transform="matrix(0.678186,0,0,1,146.641,-12)">
                    <rect x="527.138" y="598.927" width="1030.87" height="69.021" style="fill:#dde5f2;stroke:#061648;stroke-width:4.72px;"/>
                </g>
                <g transform="matrix(1,0,0,1,-21.6793,95.2603)">
                    <g transform="matrix(50,0,0,50,540.497,538.812)">
                        <path d="M0.404,-0.19L0.491,-0.179C0.481,-0.119 0.457,-0.073 0.418,-0.039C0.379,-0.005 0.332,0.012 0.275,0.012C0.204,0.012 0.147,-0.011 0.104,-0.058C0.061,-0.104 0.039,-0.171 0.039,-0.257C0.039,-0.313 0.048,-0.362 0.067,-0.404C0.085,-0.446 0.114,-0.478 0.152,-0.499C0.19,-0.52 0.231,-0.53 0.275,-0.53C0.332,-0.53 0.378,-0.516 0.414,-0.488C0.449,-0.459 0.472,-0.419 0.482,-0.366L0.397,-0.353C0.389,-0.388 0.374,-0.414 0.354,-0.432C0.333,-0.449 0.308,-0.458 0.279,-0.458C0.235,-0.458 0.199,-0.442 0.171,-0.41C0.143,-0.379 0.129,-0.328 0.129,-0.26C0.129,-0.19 0.143,-0.139 0.169,-0.108C0.196,-0.076 0.231,-0.061 0.274,-0.061C0.308,-0.061 0.337,-0.071 0.36,-0.092C0.383,-0.113 0.398,-0.146 0.404,-0.19Z" style="fill:#061648;fill-rule:nonzero;"/>
                    </g>
                    <g transform="matrix(50,0,0,50,565.497,538.812)">
                        <rect x="0.064" y="-0.716" width="0.088" height="0.716" style="fill:#061648;fill-rule:nonzero;"/>
                    </g>
                    <g transform="matrix(50,0,0,50,576.606,538.812)">
                        <path d="M0.404,-0.064C0.372,-0.036 0.34,-0.017 0.31,-0.005C0.28,0.006 0.248,0.012 0.213,0.012C0.156,0.012 0.113,-0.002 0.082,-0.03C0.051,-0.058 0.036,-0.093 0.036,-0.137C0.036,-0.162 0.042,-0.185 0.053,-0.206C0.065,-0.227 0.08,-0.244 0.099,-0.257C0.118,-0.27 0.139,-0.279 0.162,-0.286C0.179,-0.29 0.205,-0.295 0.24,-0.299C0.311,-0.307 0.363,-0.317 0.397,-0.329C0.397,-0.341 0.397,-0.349 0.397,-0.352C0.397,-0.388 0.389,-0.413 0.373,-0.428C0.35,-0.448 0.317,-0.458 0.272,-0.458C0.231,-0.458 0.201,-0.45 0.181,-0.436C0.161,-0.421 0.147,-0.396 0.137,-0.359L0.051,-0.371C0.059,-0.407 0.072,-0.437 0.09,-0.46C0.108,-0.482 0.134,-0.5 0.167,-0.512C0.201,-0.524 0.241,-0.53 0.285,-0.53C0.329,-0.53 0.365,-0.525 0.393,-0.515C0.421,-0.504 0.441,-0.491 0.454,-0.475C0.467,-0.46 0.476,-0.44 0.481,-0.416C0.484,-0.401 0.486,-0.374 0.486,-0.334L0.486,-0.217C0.486,-0.136 0.488,-0.084 0.491,-0.062C0.495,-0.041 0.503,-0.02 0.514,-0L0.422,-0C0.413,-0.018 0.407,-0.04 0.404,-0.064ZM0.397,-0.26C0.365,-0.247 0.317,-0.236 0.253,-0.227C0.217,-0.222 0.192,-0.216 0.177,-0.209C0.162,-0.203 0.15,-0.193 0.142,-0.181C0.134,-0.168 0.13,-0.154 0.13,-0.139C0.13,-0.116 0.139,-0.096 0.156,-0.081C0.174,-0.065 0.2,-0.057 0.234,-0.057C0.268,-0.057 0.298,-0.065 0.325,-0.079C0.351,-0.094 0.37,-0.114 0.383,-0.14C0.392,-0.16 0.397,-0.189 0.397,-0.228L0.397,-0.26Z" style="fill:#061648;fill-rule:nonzero;"/>
                    </g>
                    <g transform="matrix(50,0,0,50,604.413,538.812)">
                        <path d="M0.031,-0.155L0.118,-0.168C0.123,-0.134 0.136,-0.107 0.158,-0.088C0.181,-0.07 0.212,-0.061 0.252,-0.061C0.292,-0.061 0.322,-0.069 0.342,-0.085C0.361,-0.102 0.371,-0.121 0.371,-0.143C0.371,-0.163 0.362,-0.179 0.345,-0.19C0.333,-0.198 0.303,-0.208 0.255,-0.22C0.191,-0.236 0.146,-0.25 0.121,-0.262C0.096,-0.274 0.078,-0.29 0.065,-0.311C0.052,-0.332 0.045,-0.355 0.045,-0.381C0.045,-0.404 0.051,-0.425 0.061,-0.445C0.072,-0.465 0.086,-0.481 0.104,-0.494C0.118,-0.504 0.137,-0.513 0.16,-0.52C0.184,-0.527 0.209,-0.53 0.236,-0.53C0.277,-0.53 0.313,-0.524 0.344,-0.513C0.374,-0.501 0.397,-0.485 0.412,-0.465C0.426,-0.445 0.436,-0.418 0.442,-0.385L0.356,-0.373C0.352,-0.4 0.341,-0.421 0.322,-0.436C0.303,-0.451 0.277,-0.458 0.243,-0.458C0.202,-0.458 0.174,-0.451 0.156,-0.438C0.139,-0.425 0.13,-0.409 0.13,-0.391C0.13,-0.38 0.134,-0.369 0.141,-0.36C0.148,-0.351 0.16,-0.343 0.175,-0.337C0.184,-0.334 0.209,-0.326 0.252,-0.314C0.315,-0.298 0.358,-0.284 0.383,-0.274C0.407,-0.263 0.426,-0.248 0.44,-0.228C0.454,-0.207 0.461,-0.182 0.461,-0.152C0.461,-0.123 0.453,-0.095 0.436,-0.07C0.419,-0.044 0.394,-0.024 0.362,-0.01C0.33,0.005 0.293,0.012 0.252,0.012C0.185,0.012 0.134,-0.002 0.098,-0.03C0.063,-0.058 0.041,-0.1 0.031,-0.155Z" style="fill:#061648;fill-rule:nonzero;"/>
                    </g>
                    <g transform="matrix(50,0,0,50,629.413,538.812)">
                        <path d="M0.031,-0.155L0.118,-0.168C0.123,-0.134 0.136,-0.107 0.158,-0.088C0.181,-0.07 0.212,-0.061 0.252,-0.061C0.292,-0.061 0.322,-0.069 0.342,-0.085C0.361,-0.102 0.371,-0.121 0.371,-0.143C0.371,-0.163 0.362,-0.179 0.345,-0.19C0.333,-0.198 0.303,-0.208 0.255,-0.22C0.191,-0.236 0.146,-0.25 0.121,-0.262C0.096,-0.274 0.078,-0.29 0.065,-0.311C0.052,-0.332 0.045,-0.355 0.045,-0.381C0.045,-0.404 0.051,-0.425 0.061,-0.445C0.072,-0.465 0.086,-0.481 0.104,-0.494C0.118,-0.504 0.137,-0.513 0.16,-0.52C0.184,-0.527 0.209,-0.53 0.236,-0.53C0.277,-0.53 0.313,-0.524 0.344,-0.513C0.374,-0.501 0.397,-0.485 0.412,-0.465C0.426,-0.445 0.436,-0.418 0.442,-0.385L0.356,-0.373C0.352,-0.4 0.341,-0.421 0.322,-0.436C0.303,-0.451 0.277,-0.458 0.243,-0.458C0.202,-0.458 0.174,-0.451 0.156,-0.438C0.139,-0.425 0.13,-0.409 0.13,-0.391C0.13,-0.38 0.134,-0.369 0.141,-0.36C0.148,-0.351 0.16,-0.343 0.175,-0.337C0.184,-0.334 0.209,-0.326 0.252,-0.314C0.315,-0.298 0.358,-0.284 0.383,-0.274C0.407,-0.263 0.426,-0.248 0.44,-0.228C0.454,-0.207 0.461,-0.182 0.461,-0.152C0.461,-0.123 0.453,-0.095 0.436,-0.07C0.419,-0.044 0.394,-0.024 0.362,-0.01C0.33,0.005 0.293,0.012 0.252,0.012C0.185,0.012 0.134,-0.002 0.098,-0.03C0.063,-0.058 0.041,-0.1 0.031,-0.155Z" style="fill:#061648;fill-rule:nonzero;"/>
                    </g>
                    <g transform="matrix(50,0,0,50,654.413,538.812)">
                        <path d="M0.066,-0.615L0.066,-0.716L0.154,-0.716L0.154,-0.615L0.066,-0.615ZM0.066,-0L0.066,-0.519L0.154,-0.519L0.154,-0L0.066,-0Z" style="fill:#061648;fill-rule:nonzero;"/>
                    </g>
                    <g transform="matrix(50,0,0,50,665.522,538.812)">
                        <path d="M0.089,-0L0.089,-0.451L0.011,-0.451L0.011,-0.519L0.089,-0.519L0.089,-0.569C0.089,-0.62 0.1,-0.66 0.123,-0.687C0.145,-0.714 0.18,-0.728 0.228,-0.728C0.26,-0.728 0.29,-0.724 0.317,-0.717L0.303,-0.643C0.286,-0.646 0.27,-0.647 0.256,-0.647C0.226,-0.647 0.205,-0.641 0.194,-0.629C0.183,-0.617 0.177,-0.591 0.177,-0.552L0.177,-0.519L0.278,-0.519L0.278,-0.451L0.177,-0.451L0.177,-0L0.089,-0ZM0.344,-0.615L0.344,-0.716L0.432,-0.716L0.432,-0.615L0.344,-0.615ZM0.344,-0L0.344,-0.519L0.432,-0.519L0.432,-0L0.344,-0Z" style="fill:#061648;fill-rule:nonzero;"/>
                    </g>
                    <g transform="matrix(50,0,0,50,690.522,538.812)">
                        <path d="M0.421,-0.167L0.512,-0.156C0.497,-0.103 0.471,-0.062 0.432,-0.032C0.393,-0.003 0.344,0.012 0.284,0.012C0.208,0.012 0.148,-0.012 0.103,-0.058C0.059,-0.105 0.037,-0.171 0.037,-0.255C0.037,-0.342 0.059,-0.41 0.104,-0.458C0.149,-0.506 0.207,-0.53 0.279,-0.53C0.348,-0.53 0.405,-0.507 0.449,-0.459C0.493,-0.412 0.515,-0.346 0.515,-0.26C0.515,-0.255 0.514,-0.247 0.514,-0.237L0.127,-0.237C0.131,-0.18 0.147,-0.136 0.176,-0.106C0.205,-0.076 0.241,-0.061 0.284,-0.061C0.316,-0.061 0.344,-0.069 0.367,-0.086C0.389,-0.103 0.408,-0.13 0.421,-0.167ZM0.132,-0.309L0.422,-0.309C0.418,-0.353 0.407,-0.385 0.389,-0.407C0.361,-0.441 0.324,-0.458 0.28,-0.458C0.239,-0.458 0.205,-0.444 0.178,-0.417C0.15,-0.39 0.135,-0.354 0.132,-0.309Z" style="fill:#061648;fill-rule:nonzero;"/>
                    </g>
                    <g transform="matrix(50,0,0,50,718.329,538.812)">
                        <path d="M0.065,-0L0.065,-0.519L0.144,-0.519L0.144,-0.44C0.164,-0.477 0.183,-0.501 0.2,-0.513C0.217,-0.524 0.236,-0.53 0.256,-0.53C0.286,-0.53 0.316,-0.521 0.347,-0.502L0.316,-0.42C0.295,-0.433 0.273,-0.439 0.252,-0.439C0.233,-0.439 0.215,-0.434 0.2,-0.422C0.185,-0.411 0.174,-0.395 0.167,-0.374C0.158,-0.343 0.153,-0.309 0.153,-0.271L0.153,-0L0.065,-0Z" style="fill:#061648;fill-rule:nonzero;"/>
                    </g>
                </g>
            </g>
            <g transform="matrix(1.01063,0,0,1.01665,-471.225,-453.182)">
                <g transform="matrix(0.678186,0,0,1,146.641,-12)">
                    <rect x="527.138" y="598.927" width="1030.87" height="69.021" style="fill:#dde5f2;stroke:#061648;stroke-width:4.72px;stroke-dasharray:14.17,9.45,0,0;"/>
                </g>
                <g transform="matrix(1,0,0,1,-21.6793,95.2603)">
                    <g transform="matrix(50,0,0,50,540.497,538.812)">
                        <path d="M0.066,-0.615L0.066,-0.716L0.154,-0.716L0.154,-0.615L0.066,-0.615ZM0.066,-0L0.066,-0.519L0.154,-0.519L0.154,-0L0.066,-0Z" style="fill:#061648;fill-rule:nonzero;"/>
                    </g>
                    <g transform="matrix(50,0,0,50,551.606,538.812)">
                        <path d="M0.066,-0L0.066,-0.519L0.145,-0.519L0.145,-0.445C0.183,-0.502 0.238,-0.53 0.31,-0.53C0.341,-0.53 0.37,-0.525 0.396,-0.513C0.422,-0.502 0.442,-0.487 0.455,-0.469C0.468,-0.451 0.477,-0.429 0.482,-0.404C0.486,-0.388 0.487,-0.36 0.487,-0.319L0.487,-0L0.399,-0L0.399,-0.315C0.399,-0.351 0.396,-0.378 0.389,-0.396C0.382,-0.413 0.37,-0.428 0.353,-0.438C0.335,-0.449 0.315,-0.454 0.292,-0.454C0.254,-0.454 0.222,-0.442 0.195,-0.418C0.167,-0.395 0.154,-0.35 0.154,-0.283L0.154,-0L0.066,-0Z" style="fill:#061648;fill-rule:nonzero;"/>
                    </g>
                    <g transform="matrix(50,0,0,50,579.413,538.812)">
                        <path d="M0.066,-0.615L0.066,-0.716L0.154,-0.716L0.154,-0.615L0.066,-0.615ZM0.066,-0L0.066,-0.519L0.154,-0.519L0.154,-0L0.066,-0Z" style="fill:#061648;fill-rule:nonzero;"/>
                    </g>
                    <g transform="matrix(50,0,0,50,590.522,538.812)">
                        <path d="M0.258,-0.079L0.271,-0.001C0.246,0.004 0.224,0.007 0.204,0.007C0.172,0.007 0.147,0.002 0.13,-0.008C0.112,-0.018 0.1,-0.032 0.093,-0.048C0.086,-0.065 0.082,-0.099 0.082,-0.152L0.082,-0.45L0.018,-0.45L0.018,-0.519L0.082,-0.519L0.082,-0.647L0.169,-0.7L0.169,-0.519L0.258,-0.519L0.258,-0.45L0.169,-0.45L0.169,-0.147C0.169,-0.122 0.171,-0.106 0.174,-0.099C0.177,-0.091 0.182,-0.086 0.189,-0.082C0.196,-0.077 0.206,-0.075 0.219,-0.075C0.229,-0.075 0.242,-0.076 0.258,-0.079Z" style="fill:#061648;fill-rule:nonzero;"/>
                    </g>
                    <g transform="matrix(50,0,0,50,604.413,538.812)">
                        <path d="M0.066,-0.615L0.066,-0.716L0.154,-0.716L0.154,-0.615L0.066,-0.615ZM0.066,-0L0.066,-0.519L0.154,-0.519L0.154,-0L0.066,-0Z" style="fill:#061648;fill-rule:nonzero;"/>
                    </g>
                    <g transform="matrix(50,0,0,50,615.522,538.812)">
                        <path d="M0.404,-0.064C0.372,-0.036 0.34,-0.017 0.31,-0.005C0.28,0.006 0.248,0.012 0.213,0.012C0.156,0.012 0.113,-0.002 0.082,-0.03C0.051,-0.058 0.036,-0.093 0.036,-0.137C0.036,-0.162 0.042,-0.185 0.053,-0.206C0.065,-0.227 0.08,-0.244 0.099,-0.257C0.118,-0.27 0.139,-0.279 0.162,-0.286C0.179,-0.29 0.205,-0.295 0.24,-0.299C0.311,-0.307 0.363,-0.317 0.397,-0.329C0.397,-0.341 0.397,-0.349 0.397,-0.352C0.397,-0.388 0.389,-0.413 0.373,-0.428C0.35,-0.448 0.317,-0.458 0.272,-0.458C0.231,-0.458 0.201,-0.45 0.181,-0.436C0.161,-0.421 0.147,-0.396 0.137,-0.359L0.051,-0.371C0.059,-0.407 0.072,-0.437 0.09,-0.46C0.108,-0.482 0.134,-0.5 0.167,-0.512C0.201,-0.524 0.241,-0.53 0.285,-0.53C0.329,-0.53 0.365,-0.525 0.393,-0.515C0.421,-0.504 0.441,-0.491 0.454,-0.475C0.467,-0.46 0.476,-0.44 0.481,-0.416C0.484,-0.401 0.486,-0.374 0.486,-0.334L0.486,-0.217C0.486,-0.136 0.488,-0.084 0.491,-0.062C0.495,-0.041 0.503,-0.02 0.514,-0L0.422,-0C0.413,-0.018 0.407,-0.04 0.404,-0.064ZM0.397,-0.26C0.365,-0.247 0.317,-0.236 0.253,-0.227C0.217,-0.222 0.192,-0.216 0.177,-0.209C0.162,-0.203 0.15,-0.193 0.142,-0.181C0.134,-0.168 0.13,-0.154 0.13,-0.139C0.13,-0.116 0.139,-0.096 0.156,-0.081C0.174,-0.065 0.2,-0.057 0.234,-0.057C0.268,-0.057 0.298,-0.065 0.325,-0.079C0.351,-0.094 0.37,-0.114 0.383,-0.14C0.392,-0.16 0.397,-0.189 0.397,-0.228L0.397,-0.26Z" style="fill:#061648;fill-rule:nonzero;"/>
                    </g>
                    <g transform="matrix(50,0,0,50,643.329,538.812)">
                        <rect x="0.064" y="-0.716" width="0.088" height="0.716" style="fill:#061648;fill-rule:nonzero;"/>
                    </g>
                    <g transform="matrix(50,0,0,50,654.438,538.812)">
                        <path d="M0.066,-0.615L0.066,-0.716L0.154,-0.716L0.154,-0.615L0.066,-0.615ZM0.066,-0L0.066,-0.519L0.154,-0.519L0.154,-0L0.066,-0Z" style="fill:#061648;fill-rule:nonzero;"/>
                    </g>
                    <g transform="matrix(50,0,0,50,665.546,538.812)">
                        <path d="M0.02,-0L0.02,-0.071L0.35,-0.45C0.312,-0.448 0.279,-0.447 0.25,-0.447L0.039,-0.447L0.039,-0.519L0.463,-0.519L0.463,-0.46L0.182,-0.131L0.128,-0.071C0.167,-0.074 0.204,-0.076 0.239,-0.076L0.479,-0.076L0.479,-0L0.02,-0Z" style="fill:#061648;fill-rule:nonzero;"/>
                    </g>
                    <g transform="matrix(50,0,0,50,690.546,538.812)">
                        <path d="M0.404,-0.064C0.372,-0.036 0.34,-0.017 0.31,-0.005C0.28,0.006 0.248,0.012 0.213,0.012C0.156,0.012 0.113,-0.002 0.082,-0.03C0.051,-0.058 0.036,-0.093 0.036,-0.137C0.036,-0.162 0.042,-0.185 0.053,-0.206C0.065,-0.227 0.08,-0.244 0.099,-0.257C0.118,-0.27 0.139,-0.279 0.162,-0.286C0.179,-0.29 0.205,-0.295 0.24,-0.299C0.311,-0.307 0.363,-0.317 0.397,-0.329C0.397,-0.341 0.397,-0.349 0.397,-0.352C0.397,-0.388 0.389,-0.413 0.373,-0.428C0.35,-0.448 0.317,-0.458 0.272,-0.458C0.231,-0.458 0.201,-0.45 0.181,-0.436C0.161,-0.421 0.147,-0.396 0.137,-0.359L0.051,-0.371C0.059,-0.407 0.072,-0.437 0.09,-0.46C0.108,-0.482 0.134,-0.5 0.167,-0.512C0.201,-0.524 0.241,-0.53 0.285,-0.53C0.329,-0.53 0.365,-0.525 0.393,-0.515C0.421,-0.504 0.441,-0.491 0.454,-0.475C0.467,-0.46 0.476,-0.44 0.481,-0.416C0.484,-0.401 0.486,-0.374 0.486,-0.334L0.486,-0.217C0.486,-0.136 0.488,-0.084 0.491,-0.062C0.495,-0.041 0.503,-0.02 0.514,-0L0.422,-0C0.413,-0.018 0.407,-0.04 0.404,-0.064ZM0.397,-0.26C0.365,-0.247 0.317,-0.236 0.253,-0.227C0.217,-0.222 0.192,-0.216 0.177,-0.209C0.162,-0.203 0.15,-0.193 0.142,-0.181C0.134,-0.168 0.13,-0.154 0.13,-0.139C0.13,-0.116 0.139,-0.096 0.156,-0.081C0.174,-0.065 0.2,-0.057 0.234,-0.057C0.268,-0.057 0.298,-0.065 0.325,-0.079C0.351,-0.094 0.37,-0.114 0.383,-0.14C0.392,-0.16 0.397,-0.189 0.397,-0.228L0.397,-0.26Z" style="fill:#061648;fill-rule:nonzero;"/>
                    </g>
                    <g transform="matrix(50,0,0,50,718.354,538.812)">
                        <path d="M0.258,-0.079L0.271,-0.001C0.246,0.004 0.224,0.007 0.204,0.007C0.172,0.007 0.147,0.002 0.13,-0.008C0.112,-0.018 0.1,-0.032 0.093,-0.048C0.086,-0.065 0.082,-0.099 0.082,-0.152L0.082,-0.45L0.018,-0.45L0.018,-0.519L0.082,-0.519L0.082,-0.647L0.169,-0.7L0.169,-0.519L0.258,-0.519L0.258,-0.45L0.169,-0.45L0.169,-0.147C0.169,-0.122 0.171,-0.106 0.174,-0.099C0.177,-0.091 0.182,-0.086 0.189,-0.082C0.196,-0.077 0.206,-0.075 0.219,-0.075C0.229,-0.075 0.242,-0.076 0.258,-0.079Z" style="fill:#061648;fill-rule:nonzero;"/>
                    </g>
                    <g transform="matrix(50,0,0,50,732.246,538.812)">
                        <path d="M0.066,-0.615L0.066,-0.716L0.154,-0.716L0.154,-0.615L0.066,-0.615ZM0.066,-0L0.066,-0.519L0.154,-0.519L0.154,-0L0.066,-0Z" style="fill:#061648;fill-rule:nonzero;"/>
                    </g>
                    <g transform="matrix(50,0,0,50,743.354,538.812)">
                        <path d="M0.033,-0.259C0.033,-0.355 0.06,-0.426 0.113,-0.473C0.158,-0.511 0.212,-0.53 0.276,-0.53C0.348,-0.53 0.406,-0.507 0.451,-0.46C0.496,-0.413 0.519,-0.349 0.519,-0.267C0.519,-0.2 0.509,-0.147 0.489,-0.109C0.469,-0.071 0.44,-0.041 0.402,-0.02C0.363,0.001 0.322,0.012 0.276,0.012C0.204,0.012 0.145,-0.012 0.1,-0.058C0.056,-0.105 0.033,-0.172 0.033,-0.259ZM0.124,-0.259C0.124,-0.193 0.138,-0.143 0.167,-0.11C0.196,-0.077 0.232,-0.061 0.276,-0.061C0.32,-0.061 0.356,-0.077 0.385,-0.11C0.414,-0.144 0.429,-0.194 0.429,-0.262C0.429,-0.326 0.414,-0.375 0.385,-0.408C0.356,-0.441 0.32,-0.458 0.276,-0.458C0.232,-0.458 0.196,-0.441 0.167,-0.408C0.138,-0.375 0.124,-0.326 0.124,-0.259Z" style="fill:#061648;fill-rule:nonzero;"/>
                    </g>
                    <g transform="matrix(50,0,0,50,771.162,538.812)">
                        <path d="M0.066,-0L0.066,-0.519L0.145,-0.519L0.145,-0.445C0.183,-0.502 0.238,-0.53 0.31,-0.53C0.341,-0.53 0.37,-0.525 0.396,-0.513C0.422,-0.502 0.442,-0.487 0.455,-0.469C0.468,-0.451 0.477,-0.429 0.482,-0.404C0.486,-0.388 0.487,-0.36 0.487,-0.319L0.487,-0L0.399,-0L0.399,-0.315C0.399,-0.351 0.396,-0.378 0.389,-0.396C0.382,-0.413 0.37,-0.428 0.353,-0.438C0.335,-0.449 0.315,-0.454 0.292,-0.454C0.254,-0.454 0.222,-0.442 0.195,-0.418C0.167,-0.395 0.154,-0.35 0.154,-0.283L0.154,-0L0.066,-0Z" style="fill:#061648;fill-rule:nonzero;"/>
                    </g>
                    <g transform="matrix(50,0,0,50,812.861,538.812)">
                        <path d="M0.031,-0.155L0.118,-0.168C0.123,-0.134 0.136,-0.107 0.158,-0.088C0.181,-0.07 0.212,-0.061 0.252,-0.061C0.292,-0.061 0.322,-0.069 0.342,-0.085C0.361,-0.102 0.371,-0.121 0.371,-0.143C0.371,-0.163 0.362,-0.179 0.345,-0.19C0.333,-0.198 0.303,-0.208 0.255,-0.22C0.191,-0.236 0.146,-0.25 0.121,-0.262C0.096,-0.274 0.078,-0.29 0.065,-0.311C0.052,-0.332 0.045,-0.355 0.045,-0.381C0.045,-0.404 0.051,-0.425 0.061,-0.445C0.072,-0.465 0.086,-0.481 0.104,-0.494C0.118,-0.504 0.137,-0.513 0.16,-0.52C0.184,-0.527 0.209,-0.53 0.236,-0.53C0.277,-0.53 0.313,-0.524 0.344,-0.513C0.374,-0.501 0.397,-0.485 0.412,-0.465C0.426,-0.445 0.436,-0.418 0.442,-0.385L0.356,-0.373C0.352,-0.4 0.341,-0.421 0.322,-0.436C0.303,-0.451 0.277,-0.458 0.243,-0.458C0.202,-0.458 0.174,-0.451 0.156,-0.438C0.139,-0.425 0.13,-0.409 0.13,-0.391C0.13,-0.38 0.134,-0.369 0.141,-0.36C0.148,-0.351 0.16,-0.343 0.175,-0.337C0.184,-0.334 0.209,-0.326 0.252,-0.314C0.315,-0.298 0.358,-0.284 0.383,-0.274C0.407,-0.263 0.426,-0.248 0.44,-0.228C0.454,-0.207 0.461,-0.182 0.461,-0.152C0.461,-0.123 0.453,-0.095 0.436,-0.07C0.419,-0.044 0.394,-0.024 0.362,-0.01C0.33,0.005 0.293,0.012 0.252,0.012C0.185,0.012 0.134,-0.002 0.098,-0.03C0.063,-0.058 0.041,-0.1 0.031,-0.155Z" style="fill:#061648;fill-rule:nonzero;"/>
                    </g>
                    <g transform="matrix(50,0,0,50,837.861,538.812)">
                        <path d="M0.258,-0.079L0.271,-0.001C0.246,0.004 0.224,0.007 0.204,0.007C0.172,0.007 0.147,0.002 0.13,-0.008C0.112,-0.018 0.1,-0.032 0.093,-0.048C0.086,-0.065 0.082,-0.099 0.082,-0.152L0.082,-0.45L0.018,-0.45L0.018,-0.519L0.082,-0.519L0.082,-0.647L0.169,-0.7L0.169,-0.519L0.258,-0.519L0.258,-0.45L0.169,-0.45L0.169,-0.147C0.169,-0.122 0.171,-0.106 0.174,-0.099C0.177,-0.091 0.182,-0.086 0.189,-0.082C0.196,-0.077 0.206,-0.075 0.219,-0.075C0.229,-0.075 0.242,-0.076 0.258,-0.079Z" style="fill:#061648;fill-rule:nonzero;"/>
                    </g>
                    <g transform="matrix(50,0,0,50,851.752,538.812)">
                        <path d="M0.065,-0L0.065,-0.519L0.144,-0.519L0.144,-0.44C0.164,-0.477 0.183,-0.501 0.2,-0.513C0.217,-0.524 0.236,-0.53 0.256,-0.53C0.286,-0.53 0.316,-0.521 0.347,-0.502L0.316,-0.42C0.295,-0.433 0.273,-0.439 0.252,-0.439C0.233,-0.439 0.215,-0.434 0.2,-0.422C0.185,-0.411 0.174,-0.395 0.167,-0.374C0.158,-0.343 0.153,-0.309 0.153,-0.271L0.153,-0L0.065,-0Z" style="fill:#061648;fill-rule:nonzero;"/>
                    </g>
                    <g transform="matrix(50,0,0,50,868.403,538.812)">
                        <path d="M0.404,-0.064C0.372,-0.036 0.34,-0.017 0.31,-0.005C0.28,0.006 0.248,0.012 0.213,0.012C0.156,0.012 0.113,-0.002 0.082,-0.03C0.051,-0.058 0.036,-0.093 0.036,-0.137C0.036,-0.162 0.042,-0.185 0.053,-0.206C0.065,-0.227 0.08,-0.244 0.099,-0.257C0.118,-0.27 0.139,-0.279 0.162,-0.286C0.179,-0.29 0.205,-0.295 0.24,-0.299C0.311,-0.307 0.363,-0.317 0.397,-0.329C0.397,-0.341 0.397,-0.349 0.397,-0.352C0.397,-0.388 0.389,-0.413 0.373,-0.428C0.35,-0.448 0.317,-0.458 0.272,-0.458C0.231,-0.458 0.201,-0.45 0.181,-0.436C0.161,-0.421 0.147,-0.396 0.137,-0.359L0.051,-0.371C0.059,-0.407 0.072,-0.437 0.09,-0.46C0.108,-0.482 0.134,-0.5 0.167,-0.512C0.201,-0.524 0.241,-0.53 0.285,-0.53C0.329,-0.53 0.365,-0.525 0.393,-0.515C0.421,-0.504 0.441,-0.491 0.454,-0.475C0.467,-0.46 0.476,-0.44 0.481,-0.416C0.484,-0.401 0.486,-0.374 0.486,-0.334L0.486,-0.217C0.486,-0.136 0.488,-0.084 0.491,-0.062C0.495,-0.041 0.503,-0.02 0.514,-0L0.422,-0C0.413,-0.018 0.407,-0.04 0.404,-0.064ZM0.397,-0.26C0.365,-0.247 0.317,-0.236 0.253,-0.227C0.217,-0.222 0.192,-0.216 0.177,-0.209C0.162,-0.203 0.15,-0.193 0.142,-0.181C0.134,-0.168 0.13,-0.154 0.13,-0.139C0.13,-0.116 0.139,-0.096 0.156,-0.081C0.174,-0.065 0.2,-0.057 0.234,-0.057C0.268,-0.057 0.298,-0.065 0.325,-0.079C0.351,-0.094 0.37,-0.114 0.383,-0.14C0.392,-0.16 0.397,-0.189 0.397,-0.228L0.397,-0.26Z" style="fill:#061648;fill-rule:nonzero;"/>
                    </g>
                    <g transform="matrix(50,0,0,50,896.21,538.812)">
                        <path d="M0.258,-0.079L0.271,-0.001C0.246,0.004 0.224,0.007 0.204,0.007C0.172,0.007 0.147,0.002 0.13,-0.008C0.112,-0.018 0.1,-0.032 0.093,-0.048C0.086,-0.065 0.082,-0.099 0.082,-0.152L0.082,-0.45L0.018,-0.45L0.018,-0.519L0.082,-0.519L0.082,-0.647L0.169,-0.7L0.169,-0.519L0.258,-0.519L0.258,-0.45L0.169,-0.45L0.169,-0.147C0.169,-0.122 0.171,-0.106 0.174,-0.099C0.177,-0.091 0.182,-0.086 0.189,-0.082C0.196,-0.077 0.206,-0.075 0.219,-0.075C0.229,-0.075 0.242,-0.076 0.258,-0.079Z" style="fill:#061648;fill-rule:nonzero;"/>
                    </g>
                    <g transform="matrix(50,0,0,50,910.102,538.812)">
                        <path d="M0.421,-0.167L0.512,-0.156C0.497,-0.103 0.471,-0.062 0.432,-0.032C0.393,-0.003 0.344,0.012 0.284,0.012C0.208,0.012 0.148,-0.012 0.103,-0.058C0.059,-0.105 0.037,-0.171 0.037,-0.255C0.037,-0.342 0.059,-0.41 0.104,-0.458C0.149,-0.506 0.207,-0.53 0.279,-0.53C0.348,-0.53 0.405,-0.507 0.449,-0.459C0.493,-0.412 0.515,-0.346 0.515,-0.26C0.515,-0.255 0.514,-0.247 0.514,-0.237L0.127,-0.237C0.131,-0.18 0.147,-0.136 0.176,-0.106C0.205,-0.076 0.241,-0.061 0.284,-0.061C0.316,-0.061 0.344,-0.069 0.367,-0.086C0.389,-0.103 0.408,-0.13 0.421,-0.167ZM0.132,-0.309L0.422,-0.309C0.418,-0.353 0.407,-0.385 0.389,-0.407C0.361,-0.441 0.324,-0.458 0.28,-0.458C0.239,-0.458 0.205,-0.444 0.178,-0.417C0.15,-0.39 0.135,-0.354 0.132,-0.309Z" style="fill:#061648;fill-rule:nonzero;"/>
                    </g>
                    <g transform="matrix(50,0,0,50,937.91,538.812)">
                        <path d="M0.05,0.043L0.135,0.056C0.139,0.082 0.149,0.101 0.165,0.113C0.187,0.13 0.217,0.138 0.254,0.138C0.295,0.138 0.326,0.13 0.349,0.113C0.371,0.097 0.386,0.074 0.394,0.045C0.398,0.027 0.4,-0.011 0.4,-0.068C0.361,-0.023 0.314,-0 0.256,-0C0.185,-0 0.13,-0.026 0.091,-0.077C0.052,-0.129 0.032,-0.19 0.032,-0.262C0.032,-0.312 0.041,-0.357 0.059,-0.399C0.077,-0.441 0.103,-0.473 0.137,-0.496C0.171,-0.519 0.211,-0.53 0.257,-0.53C0.318,-0.53 0.368,-0.506 0.408,-0.456L0.408,-0.519L0.489,-0.519L0.489,-0.07C0.489,0.01 0.481,0.068 0.465,0.101C0.448,0.135 0.422,0.162 0.386,0.181C0.351,0.201 0.307,0.21 0.255,0.21C0.193,0.21 0.143,0.197 0.105,0.169C0.067,0.141 0.049,0.099 0.05,0.043ZM0.123,-0.269C0.123,-0.201 0.136,-0.151 0.163,-0.12C0.19,-0.088 0.224,-0.073 0.265,-0.073C0.305,-0.073 0.339,-0.088 0.366,-0.119C0.394,-0.15 0.407,-0.199 0.407,-0.266C0.407,-0.329 0.393,-0.377 0.365,-0.409C0.337,-0.441 0.303,-0.458 0.263,-0.458C0.224,-0.458 0.191,-0.442 0.164,-0.41C0.136,-0.378 0.123,-0.331 0.123,-0.269Z" style="fill:#061648;fill-rule:nonzero;"/>
                    </g>
                    <g transform="matrix(50,0,0,50,965.717,538.812)">
                        <path d="M0.062,0.2L0.052,0.117C0.071,0.122 0.088,0.125 0.103,0.125C0.122,0.125 0.138,0.122 0.149,0.115C0.161,0.109 0.171,0.1 0.178,0.088C0.184,0.079 0.193,0.057 0.205,0.022C0.207,0.018 0.209,0.01 0.213,0.001L0.016,-0.519L0.111,-0.519L0.219,-0.218C0.233,-0.18 0.245,-0.14 0.256,-0.098C0.266,-0.139 0.278,-0.178 0.292,-0.216L0.403,-0.519L0.491,-0.519L0.294,0.009C0.273,0.066 0.256,0.105 0.245,0.126C0.229,0.155 0.211,0.177 0.191,0.19C0.171,0.204 0.147,0.21 0.119,0.21C0.102,0.21 0.083,0.207 0.062,0.2Z" style="fill:#061648;fill-rule:nonzero;"/>
                    </g>
                </g>
            </g>
            <g transform="matrix(1.01063,0,0,1.01665,-471.225,-276.05)">
                <g transform="matrix(0.678186,0,0,1,146.641,-12)">
                    <rect x="527.138" y="598.927" width="1030.87" height="69.021" style="fill:#dde5f2;stroke:#061648;stroke-width:4.72px;"/>
                </g>
                <g transform="matrix(1,0,0,1,-21.6793,95.2603)">
                    <g transform="matrix(50,0,0,50,540.497,538.812)">
                        <path d="M0.396,0.199L0.396,-0.055C0.383,-0.036 0.364,-0.02 0.339,-0.007C0.315,0.005 0.288,0.012 0.261,0.012C0.199,0.012 0.146,-0.013 0.102,-0.062C0.057,-0.111 0.035,-0.179 0.035,-0.264C0.035,-0.316 0.044,-0.363 0.062,-0.404C0.08,-0.446 0.107,-0.477 0.141,-0.498C0.175,-0.52 0.213,-0.53 0.254,-0.53C0.318,-0.53 0.368,-0.503 0.405,-0.449L0.405,-0.519L0.484,-0.519L0.484,0.199L0.396,0.199ZM0.125,-0.261C0.125,-0.194 0.139,-0.144 0.167,-0.111C0.195,-0.077 0.229,-0.061 0.268,-0.061C0.306,-0.061 0.338,-0.076 0.365,-0.108C0.392,-0.14 0.405,-0.188 0.405,-0.253C0.405,-0.322 0.391,-0.374 0.363,-0.409C0.334,-0.444 0.301,-0.461 0.262,-0.461C0.224,-0.461 0.192,-0.445 0.165,-0.412C0.139,-0.38 0.125,-0.329 0.125,-0.261Z" style="fill:#061648;fill-rule:nonzero;"/>
                    </g>
                    <g transform="matrix(50,0,0,50,568.305,538.812)">
                        <path d="M0.406,-0L0.406,-0.076C0.365,-0.018 0.311,0.012 0.241,0.012C0.211,0.012 0.182,0.006 0.156,-0.006C0.129,-0.018 0.109,-0.032 0.096,-0.05C0.084,-0.068 0.075,-0.09 0.069,-0.115C0.066,-0.132 0.064,-0.16 0.064,-0.197L0.064,-0.519L0.152,-0.519L0.152,-0.231C0.152,-0.185 0.154,-0.154 0.157,-0.138C0.163,-0.115 0.174,-0.097 0.192,-0.084C0.21,-0.071 0.232,-0.064 0.259,-0.064C0.285,-0.064 0.31,-0.071 0.333,-0.084C0.356,-0.098 0.372,-0.116 0.382,-0.139C0.392,-0.163 0.396,-0.196 0.396,-0.241L0.396,-0.519L0.484,-0.519L0.484,-0L0.406,-0Z" style="fill:#061648;fill-rule:nonzero;"/>
                    </g>
                    <g transform="matrix(50,0,0,50,596.113,538.812)">
                        <path d="M0.421,-0.167L0.512,-0.156C0.497,-0.103 0.471,-0.062 0.432,-0.032C0.393,-0.003 0.344,0.012 0.284,0.012C0.208,0.012 0.148,-0.012 0.103,-0.058C0.059,-0.105 0.037,-0.171 0.037,-0.255C0.037,-0.342 0.059,-0.41 0.104,-0.458C0.149,-0.506 0.207,-0.53 0.279,-0.53C0.348,-0.53 0.405,-0.507 0.449,-0.459C0.493,-0.412 0.515,-0.346 0.515,-0.26C0.515,-0.255 0.514,-0.247 0.514,-0.237L0.127,-0.237C0.131,-0.18 0.147,-0.136 0.176,-0.106C0.205,-0.076 0.241,-0.061 0.284,-0.061C0.316,-0.061 0.344,-0.069 0.367,-0.086C0.389,-0.103 0.408,-0.13 0.421,-0.167ZM0.132,-0.309L0.422,-0.309C0.418,-0.353 0.407,-0.385 0.389,-0.407C0.361,-0.441 0.324,-0.458 0.28,-0.458C0.239,-0.458 0.205,-0.444 0.178,-0.417C0.15,-0.39 0.135,-0.354 0.132,-0.309Z" style="fill:#061648;fill-rule:nonzero;"/>
                    </g>
                    <g transform="matrix(50,0,0,50,623.92,538.812)">
                        <path d="M0.065,-0L0.065,-0.519L0.144,-0.519L0.144,-0.44C0.164,-0.477 0.183,-0.501 0.2,-0.513C0.217,-0.524 0.236,-0.53 0.256,-0.53C0.286,-0.53 0.316,-0.521 0.347,-0.502L0.316,-0.42C0.295,-0.433 0.273,-0.439 0.252,-0.439C0.233,-0.439 0.215,-0.434 0.2,-0.422C0.185,-0.411 0.174,-0.395 0.167,-0.374C0.158,-0.343 0.153,-0.309 0.153,-0.271L0.153,-0L0.065,-0Z" style="fill:#061648;fill-rule:nonzero;"/>
                    </g>
                    <g transform="matrix(50,0,0,50,640.571,538.812)">
                        <path d="M0.062,0.2L0.052,0.117C0.071,0.122 0.088,0.125 0.103,0.125C0.122,0.125 0.138,0.122 0.149,0.115C0.161,0.109 0.171,0.1 0.178,0.088C0.184,0.079 0.193,0.057 0.205,0.022C0.207,0.018 0.209,0.01 0.213,0.001L0.016,-0.519L0.111,-0.519L0.219,-0.218C0.233,-0.18 0.245,-0.14 0.256,-0.098C0.266,-0.139 0.278,-0.178 0.292,-0.216L0.403,-0.519L0.491,-0.519L0.294,0.009C0.273,0.066 0.256,0.105 0.245,0.126C0.229,0.155 0.211,0.177 0.191,0.19C0.171,0.204 0.147,0.21 0.119,0.21C0.102,0.21 0.083,0.207 0.062,0.2Z" style="fill:#061648;fill-rule:nonzero;"/>
                    </g>
                    <g transform="matrix(50,0,0,50,679.462,538.812)">
                        <path d="M0.031,-0.155L0.118,-0.168C0.123,-0.134 0.136,-0.107 0.158,-0.088C0.181,-0.07 0.212,-0.061 0.252,-0.061C0.292,-0.061 0.322,-0.069 0.342,-0.085C0.361,-0.102 0.371,-0.121 0.371,-0.143C0.371,-0.163 0.362,-0.179 0.345,-0.19C0.333,-0.198 0.303,-0.208 0.255,-0.22C0.191,-0.236 0.146,-0.25 0.121,-0.262C0.096,-0.274 0.078,-0.29 0.065,-0.311C0.052,-0.332 0.045,-0.355 0.045,-0.381C0.045,-0.404 0.051,-0.425 0.061,-0.445C0.072,-0.465 0.086,-0.481 0.104,-0.494C0.118,-0.504 0.137,-0.513 0.16,-0.52C0.184,-0.527 0.209,-0.53 0.236,-0.53C0.277,-0.53 0.313,-0.524 0.344,-0.513C0.374,-0.501 0.397,-0.485 0.412,-0.465C0.426,-0.445 0.436,-0.418 0.442,-0.385L0.356,-0.373C0.352,-0.4 0.341,-0.421 0.322,-0.436C0.303,-0.451 0.277,-0.458 0.243,-0.458C0.202,-0.458 0.174,-0.451 0.156,-0.438C0.139,-0.425 0.13,-0.409 0.13,-0.391C0.13,-0.38 0.134,-0.369 0.141,-0.36C0.148,-0.351 0.16,-0.343 0.175,-0.337C0.184,-0.334 0.209,-0.326 0.252,-0.314C0.315,-0.298 0.358,-0.284 0.383,-0.274C0.407,-0.263 0.426,-0.248 0.44,-0.228C0.454,-0.207 0.461,-0.182 0.461,-0.152C0.461,-0.123 0.453,-0.095 0.436,-0.07C0.419,-0.044 0.394,-0.024 0.362,-0.01C0.33,0.005 0.293,0.012 0.252,0.012C0.185,0.012 0.134,-0.002 0.098,-0.03C0.063,-0.058 0.041,-0.1 0.031,-0.155Z" style="fill:#061648;fill-rule:nonzero;"/>
                    </g>
                    <g transform="matrix(50,0,0,50,704.462,538.812)">
                        <path d="M0.258,-0.079L0.271,-0.001C0.246,0.004 0.224,0.007 0.204,0.007C0.172,0.007 0.147,0.002 0.13,-0.008C0.112,-0.018 0.1,-0.032 0.093,-0.048C0.086,-0.065 0.082,-0.099 0.082,-0.152L0.082,-0.45L0.018,-0.45L0.018,-0.519L0.082,-0.519L0.082,-0.647L0.169,-0.7L0.169,-0.519L0.258,-0.519L0.258,-0.45L0.169,-0.45L0.169,-0.147C0.169,-0.122 0.171,-0.106 0.174,-0.099C0.177,-0.091 0.182,-0.086 0.189,-0.082C0.196,-0.077 0.206,-0.075 0.219,-0.075C0.229,-0.075 0.242,-0.076 0.258,-0.079Z" style="fill:#061648;fill-rule:nonzero;"/>
                    </g>
                    <g transform="matrix(50,0,0,50,718.354,538.812)">
                        <path d="M0.065,-0L0.065,-0.519L0.144,-0.519L0.144,-0.44C0.164,-0.477 0.183,-0.501 0.2,-0.513C0.217,-0.524 0.236,-0.53 0.256,-0.53C0.286,-0.53 0.316,-0.521 0.347,-0.502L0.316,-0.42C0.295,-0.433 0.273,-0.439 0.252,-0.439C0.233,-0.439 0.215,-0.434 0.2,-0.422C0.185,-0.411 0.174,-0.395 0.167,-0.374C0.158,-0.343 0.153,-0.309 0.153,-0.271L0.153,-0L0.065,-0Z" style="fill:#061648;fill-rule:nonzero;"/>
                    </g>
                    <g transform="matrix(50,0,0,50,735.004,538.812)">
                        <path d="M0.404,-0.064C0.372,-0.036 0.34,-0.017 0.31,-0.005C0.28,0.006 0.248,0.012 0.213,0.012C0.156,0.012 0.113,-0.002 0.082,-0.03C0.051,-0.058 0.036,-0.093 0.036,-0.137C0.036,-0.162 0.042,-0.185 0.053,-0.206C0.065,-0.227 0.08,-0.244 0.099,-0.257C0.118,-0.27 0.139,-0.279 0.162,-0.286C0.179,-0.29 0.205,-0.295 0.24,-0.299C0.311,-0.307 0.363,-0.317 0.397,-0.329C0.397,-0.341 0.397,-0.349 0.397,-0.352C0.397,-0.388 0.389,-0.413 0.373,-0.428C0.35,-0.448 0.317,-0.458 0.272,-0.458C0.231,-0.458 0.201,-0.45 0.181,-0.436C0.161,-0.421 0.147,-0.396 0.137,-0.359L0.051,-0.371C0.059,-0.407 0.072,-0.437 0.09,-0.46C0.108,-0.482 0.134,-0.5 0.167,-0.512C0.201,-0.524 0.241,-0.53 0.285,-0.53C0.329,-0.53 0.365,-0.525 0.393,-0.515C0.421,-0.504 0.441,-0.491 0.454,-0.475C0.467,-0.46 0.476,-0.44 0.481,-0.416C0.484,-0.401 0.486,-0.374 0.486,-0.334L0.486,-0.217C0.486,-0.136 0.488,-0.084 0.491,-0.062C0.495,-0.041 0.503,-0.02 0.514,-0L0.422,-0C0.413,-0.018 0.407,-0.04 0.404,-0.064ZM0.397,-0.26C0.365,-0.247 0.317,-0.236 0.253,-0.227C0.217,-0.222 0.192,-0.216 0.177,-0.209C0.162,-0.203 0.15,-0.193 0.142,-0.181C0.134,-0.168 0.13,-0.154 0.13,-0.139C0.13,-0.116 0.139,-0.096 0.156,-0.081C0.174,-0.065 0.2,-0.057 0.234,-0.057C0.268,-0.057 0.298,-0.065 0.325,-0.079C0.351,-0.094 0.37,-0.114 0.383,-0.14C0.392,-0.16 0.397,-0.189 0.397,-0.228L0.397,-0.26Z" style="fill:#061648;fill-rule:nonzero;"/>
                    </g>
                    <g transform="matrix(50,0,0,50,762.812,538.812)">
                        <path d="M0.258,-0.079L0.271,-0.001C0.246,0.004 0.224,0.007 0.204,0.007C0.172,0.007 0.147,0.002 0.13,-0.008C0.112,-0.018 0.1,-0.032 0.093,-0.048C0.086,-0.065 0.082,-0.099 0.082,-0.152L0.082,-0.45L0.018,-0.45L0.018,-0.519L0.082,-0.519L0.082,-0.647L0.169,-0.7L0.169,-0.519L0.258,-0.519L0.258,-0.45L0.169,-0.45L0.169,-0.147C0.169,-0.122 0.171,-0.106 0.174,-0.099C0.177,-0.091 0.182,-0.086 0.189,-0.082C0.196,-0.077 0.206,-0.075 0.219,-0.075C0.229,-0.075 0.242,-0.076 0.258,-0.079Z" style="fill:#061648;fill-rule:nonzero;"/>
                    </g>
                    <g transform="matrix(50,0,0,50,776.704,538.812)">
                        <path d="M0.421,-0.167L0.512,-0.156C0.497,-0.103 0.471,-0.062 0.432,-0.032C0.393,-0.003 0.344,0.012 0.284,0.012C0.208,0.012 0.148,-0.012 0.103,-0.058C0.059,-0.105 0.037,-0.171 0.037,-0.255C0.037,-0.342 0.059,-0.41 0.104,-0.458C0.149,-0.506 0.207,-0.53 0.279,-0.53C0.348,-0.53 0.405,-0.507 0.449,-0.459C0.493,-0.412 0.515,-0.346 0.515,-0.26C0.515,-0.255 0.514,-0.247 0.514,-0.237L0.127,-0.237C0.131,-0.18 0.147,-0.136 0.176,-0.106C0.205,-0.076 0.241,-0.061 0.284,-0.061C0.316,-0.061 0.344,-0.069 0.367,-0.086C0.389,-0.103 0.408,-0.13 0.421,-0.167ZM0.132,-0.309L0.422,-0.309C0.418,-0.353 0.407,-0.385 0.389,-0.407C0.361,-0.441 0.324,-0.458 0.28,-0.458C0.239,-0.458 0.205,-0.444 0.178,-0.417C0.15,-0.39 0.135,-0.354 0.132,-0.309Z" style="fill:#061648;fill-rule:nonzero;"/>
                    </g>
                    <g transform="matrix(50,0,0,50,804.511,538.812)">
                        <path d="M0.05,0.043L0.135,0.056C0.139,0.082 0.149,0.101 0.165,0.113C0.187,0.13 0.217,0.138 0.254,0.138C0.295,0.138 0.326,0.13 0.349,0.113C0.371,0.097 0.386,0.074 0.394,0.045C0.398,0.027 0.4,-0.011 0.4,-0.068C0.361,-0.023 0.314,-0 0.256,-0C0.185,-0 0.13,-0.026 0.091,-0.077C0.052,-0.129 0.032,-0.19 0.032,-0.262C0.032,-0.312 0.041,-0.357 0.059,-0.399C0.077,-0.441 0.103,-0.473 0.137,-0.496C0.171,-0.519 0.211,-0.53 0.257,-0.53C0.318,-0.53 0.368,-0.506 0.408,-0.456L0.408,-0.519L0.489,-0.519L0.489,-0.07C0.489,0.01 0.481,0.068 0.465,0.101C0.448,0.135 0.422,0.162 0.386,0.181C0.351,0.201 0.307,0.21 0.255,0.21C0.193,0.21 0.143,0.197 0.105,0.169C0.067,0.141 0.049,0.099 0.05,0.043ZM0.123,-0.269C0.123,-0.201 0.136,-0.151 0.163,-0.12C0.19,-0.088 0.224,-0.073 0.265,-0.073C0.305,-0.073 0.339,-0.088 0.366,-0.119C0.394,-0.15 0.407,-0.199 0.407,-0.266C0.407,-0.329 0.393,-0.377 0.365,-0.409C0.337,-0.441 0.303,-0.458 0.263,-0.458C0.224,-0.458 0.191,-0.442 0.164,-0.41C0.136,-0.378 0.123,-0.331 0.123,-0.269Z" style="fill:#061648;fill-rule:nonzero;"/>
                    </g>
                    <g transform="matrix(50,0,0,50,832.319,538.812)">
                        <path d="M0.062,0.2L0.052,0.117C0.071,0.122 0.088,0.125 0.103,0.125C0.122,0.125 0.138,0.122 0.149,0.115C0.161,0.109 0.171,0.1 0.178,0.088C0.184,0.079 0.193,0.057 0.205,0.022C0.207,0.018 0.209,0.01 0.213,0.001L0.016,-0.519L0.111,-0.519L0.219,-0.218C0.233,-0.18 0.245,-0.14 0.256,-0.098C0.266,-0.139 0.278,-0.178 0.292,-0.216L0.403,-0.519L0.491,-0.519L0.294,0.009C0.273,0.066 0.256,0.105 0.245,0.126C0.229,0.155 0.211,0.177 0.191,0.19C0.171,0.204 0.147,0.21 0.119,0.21C0.102,0.21 0.083,0.207 0.062,0.2Z" style="fill:#061648;fill-rule:nonzero;"/>
                    </g>
                </g>
            </g>
            <g transform="matrix(1.01063,0,0,1.01665,-508.813,-469.087)">
                <g transform="matrix(58.3333,0,0,58.3333,540.497,538.812)">
                    <path d="M-0.02,-0L0.386,-0.716L0.499,-0.716L0.617,-0L0.524,-0L0.489,-0.206L0.2,-0.206L0.085,-0L-0.02,-0ZM0.241,-0.28L0.478,-0.28L0.45,-0.459C0.439,-0.531 0.432,-0.59 0.43,-0.638C0.413,-0.597 0.39,-0.548 0.358,-0.492L0.241,-0.28Z" style="fill:#061648;fill-rule:nonzero;"/>
                </g>
                <g transform="matrix(58.3333,0,0,58.3333,579.405,538.812)">
                    <path d="M0.391,-0.189L0.479,-0.18C0.457,-0.115 0.426,-0.067 0.385,-0.035C0.344,-0.004 0.298,0.012 0.246,0.012C0.189,0.012 0.144,-0.007 0.109,-0.043C0.074,-0.079 0.056,-0.13 0.056,-0.196C0.056,-0.252 0.067,-0.308 0.09,-0.363C0.112,-0.417 0.144,-0.459 0.186,-0.488C0.228,-0.516 0.276,-0.53 0.33,-0.53C0.385,-0.53 0.429,-0.515 0.462,-0.483C0.494,-0.452 0.511,-0.41 0.511,-0.358L0.424,-0.353C0.424,-0.385 0.414,-0.411 0.395,-0.43C0.377,-0.448 0.352,-0.458 0.321,-0.458C0.286,-0.458 0.255,-0.446 0.229,-0.424C0.203,-0.401 0.183,-0.367 0.168,-0.322C0.153,-0.276 0.146,-0.232 0.146,-0.189C0.146,-0.145 0.155,-0.112 0.175,-0.09C0.194,-0.068 0.218,-0.057 0.247,-0.057C0.276,-0.057 0.303,-0.068 0.329,-0.089C0.356,-0.111 0.376,-0.144 0.391,-0.189Z" style="fill:#061648;fill-rule:nonzero;"/>
                </g>
                <g transform="matrix(58.3333,0,0,58.3333,608.572,538.812)">
                    <path d="M0.24,-0.072L0.225,0C0.204,0.006 0.183,0.009 0.164,0.009C0.128,0.009 0.1,0 0.08,-0.017C0.064,-0.03 0.056,-0.048 0.056,-0.07C0.056,-0.082 0.06,-0.108 0.069,-0.149L0.132,-0.45L0.062,-0.45L0.076,-0.519L0.146,-0.519L0.173,-0.646L0.274,-0.707L0.234,-0.519L0.321,-0.519L0.307,-0.45L0.22,-0.45L0.16,-0.164C0.153,-0.127 0.149,-0.105 0.149,-0.098C0.149,-0.088 0.152,-0.08 0.158,-0.074C0.164,-0.069 0.174,-0.066 0.188,-0.066C0.207,-0.066 0.224,-0.068 0.24,-0.072Z" style="fill:#061648;fill-rule:nonzero;"/>
                </g>
                <g transform="matrix(58.3333,0,0,58.3333,624.779,538.812)">
                    <path d="M0.159,-0.616L0.18,-0.716L0.268,-0.716L0.247,-0.616L0.159,-0.616ZM0.03,-0L0.138,-0.519L0.227,-0.519L0.118,-0L0.03,-0Z" style="fill:#061648;fill-rule:nonzero;"/>
                </g>
                <g transform="matrix(58.3333,0,0,58.3333,637.739,538.812)">
                    <path d="M0.164,-0L0.079,-0.519L0.165,-0.519L0.209,-0.233C0.214,-0.202 0.22,-0.151 0.228,-0.08C0.244,-0.117 0.266,-0.159 0.292,-0.207L0.466,-0.519L0.559,-0.519L0.262,-0L0.164,-0Z" style="fill:#061648;fill-rule:nonzero;"/>
                </g>
                <g transform="matrix(58.3333,0,0,58.3333,666.905,538.812)">
                    <path d="M0.414,-0.176L0.5,-0.167C0.488,-0.125 0.459,-0.084 0.415,-0.046C0.37,-0.007 0.317,0.012 0.256,0.012C0.217,0.012 0.182,0.003 0.15,-0.015C0.118,-0.033 0.094,-0.058 0.077,-0.092C0.06,-0.126 0.052,-0.165 0.052,-0.208C0.052,-0.265 0.065,-0.32 0.091,-0.373C0.117,-0.426 0.151,-0.466 0.193,-0.491C0.235,-0.517 0.28,-0.53 0.328,-0.53C0.39,-0.53 0.439,-0.511 0.476,-0.473C0.513,-0.434 0.532,-0.382 0.532,-0.315C0.532,-0.29 0.529,-0.264 0.525,-0.237L0.143,-0.237C0.142,-0.227 0.141,-0.218 0.141,-0.21C0.141,-0.161 0.152,-0.124 0.175,-0.099C0.197,-0.073 0.224,-0.061 0.256,-0.061C0.287,-0.061 0.316,-0.07 0.346,-0.09C0.375,-0.11 0.398,-0.139 0.414,-0.176ZM0.157,-0.305L0.448,-0.305C0.449,-0.314 0.449,-0.32 0.449,-0.324C0.449,-0.368 0.438,-0.402 0.416,-0.426C0.393,-0.45 0.365,-0.461 0.33,-0.461C0.292,-0.461 0.258,-0.448 0.227,-0.422C0.196,-0.396 0.173,-0.357 0.157,-0.305Z" style="fill:#061648;fill-rule:nonzero;"/>
                </g>
                <g transform="matrix(58.3333,0,0,58.3333,715.554,538.812)">
                    <path d="M0.04,-0L0.189,-0.716L0.285,-0.716L0.153,-0.081L0.524,-0.081L0.507,-0L0.04,-0Z" style="fill:#061648;fill-rule:nonzero;"/>
                </g>
                <g transform="matrix(58.3333,0,0,58.3333,747.997,538.812)">
                    <path d="M0.414,-0.176L0.5,-0.167C0.488,-0.125 0.459,-0.084 0.415,-0.046C0.37,-0.007 0.317,0.012 0.256,0.012C0.217,0.012 0.182,0.003 0.15,-0.015C0.118,-0.033 0.094,-0.058 0.077,-0.092C0.06,-0.126 0.052,-0.165 0.052,-0.208C0.052,-0.265 0.065,-0.32 0.091,-0.373C0.117,-0.426 0.151,-0.466 0.193,-0.491C0.235,-0.517 0.28,-0.53 0.328,-0.53C0.39,-0.53 0.439,-0.511 0.476,-0.473C0.513,-0.434 0.532,-0.382 0.532,-0.315C0.532,-0.29 0.529,-0.264 0.525,-0.237L0.143,-0.237C0.142,-0.227 0.141,-0.218 0.141,-0.21C0.141,-0.161 0.152,-0.124 0.175,-0.099C0.197,-0.073 0.224,-0.061 0.256,-0.061C0.287,-0.061 0.316,-0.07 0.346,-0.09C0.375,-0.11 0.398,-0.139 0.414,-0.176ZM0.157,-0.305L0.448,-0.305C0.449,-0.314 0.449,-0.32 0.449,-0.324C0.449,-0.368 0.438,-0.402 0.416,-0.426C0.393,-0.45 0.365,-0.461 0.33,-0.461C0.292,-0.461 0.258,-0.448 0.227,-0.422C0.196,-0.396 0.173,-0.357 0.157,-0.305Z" style="fill:#061648;fill-rule:nonzero;"/>
                </g>
                <g transform="matrix(58.3333,0,0,58.3333,780.439,538.812)">
                    <path d="M0.383,-0.064C0.352,-0.038 0.323,-0.019 0.294,-0.007C0.266,0.006 0.236,0.012 0.204,0.012C0.156,0.012 0.117,-0.002 0.088,-0.031C0.059,-0.059 0.044,-0.095 0.044,-0.139C0.044,-0.168 0.051,-0.193 0.064,-0.216C0.077,-0.238 0.094,-0.256 0.116,-0.269C0.138,-0.283 0.165,-0.292 0.196,-0.298C0.216,-0.302 0.254,-0.305 0.309,-0.308C0.365,-0.31 0.405,-0.316 0.429,-0.325C0.436,-0.349 0.439,-0.369 0.439,-0.385C0.439,-0.406 0.431,-0.422 0.417,-0.434C0.396,-0.45 0.366,-0.458 0.327,-0.458C0.29,-0.458 0.259,-0.45 0.236,-0.433C0.212,-0.417 0.195,-0.394 0.184,-0.363L0.095,-0.371C0.113,-0.423 0.142,-0.462 0.181,-0.489C0.221,-0.517 0.271,-0.53 0.331,-0.53C0.395,-0.53 0.446,-0.515 0.483,-0.484C0.512,-0.462 0.526,-0.432 0.526,-0.396C0.526,-0.368 0.522,-0.336 0.514,-0.299L0.485,-0.17C0.476,-0.129 0.472,-0.096 0.472,-0.07C0.472,-0.054 0.475,-0.031 0.482,-0L0.393,-0C0.388,-0.017 0.385,-0.038 0.383,-0.064ZM0.416,-0.263C0.403,-0.258 0.39,-0.254 0.376,-0.251C0.362,-0.249 0.338,-0.246 0.305,-0.243C0.253,-0.239 0.217,-0.233 0.196,-0.226C0.175,-0.219 0.159,-0.208 0.148,-0.192C0.137,-0.177 0.132,-0.16 0.132,-0.142C0.132,-0.117 0.14,-0.097 0.157,-0.081C0.175,-0.065 0.199,-0.057 0.23,-0.057C0.26,-0.057 0.288,-0.064 0.315,-0.08C0.342,-0.095 0.363,-0.117 0.379,-0.145C0.395,-0.172 0.407,-0.212 0.416,-0.263Z" style="fill:#061648;fill-rule:nonzero;"/>
                </g>
                <g transform="matrix(58.3333,0,0,58.3333,812.881,538.812)">
                    <path d="M0.033,-0L0.142,-0.519L0.22,-0.519L0.198,-0.413C0.224,-0.453 0.251,-0.482 0.276,-0.501C0.302,-0.521 0.328,-0.53 0.354,-0.53C0.372,-0.53 0.394,-0.524 0.419,-0.511L0.383,-0.429C0.368,-0.44 0.351,-0.446 0.333,-0.446C0.302,-0.446 0.27,-0.429 0.238,-0.394C0.205,-0.36 0.18,-0.298 0.161,-0.208L0.117,-0L0.033,-0Z" style="fill:#061648;fill-rule:nonzero;"/>
                </g>
                <g transform="matrix(58.3333,0,0,58.3333,832.307,538.812)">
                    <path d="M0.033,-0L0.142,-0.519L0.222,-0.519L0.203,-0.428C0.237,-0.464 0.27,-0.49 0.3,-0.506C0.331,-0.522 0.361,-0.53 0.393,-0.53C0.435,-0.53 0.468,-0.519 0.492,-0.496C0.516,-0.473 0.528,-0.443 0.528,-0.405C0.528,-0.386 0.524,-0.355 0.515,-0.314L0.449,-0L0.361,-0L0.43,-0.329C0.437,-0.361 0.44,-0.384 0.44,-0.399C0.44,-0.417 0.434,-0.431 0.422,-0.441C0.41,-0.452 0.393,-0.458 0.371,-0.458C0.325,-0.458 0.285,-0.441 0.25,-0.409C0.214,-0.376 0.188,-0.32 0.172,-0.241L0.122,-0L0.033,-0Z" style="fill:#061648;fill-rule:nonzero;"/>
                </g>
                <g transform="matrix(58.3333,0,0,58.3333,864.749,538.812)">
                    <path d="M0.159,-0.616L0.18,-0.716L0.268,-0.716L0.247,-0.616L0.159,-0.616ZM0.03,-0L0.138,-0.519L0.227,-0.519L0.118,-0L0.03,-0Z" style="fill:#061648;fill-rule:nonzero;"/>
                </g>
                <g transform="matrix(58.3333,0,0,58.3333,877.709,538.812)">
                    <path d="M0.033,-0L0.142,-0.519L0.222,-0.519L0.203,-0.428C0.237,-0.464 0.27,-0.49 0.3,-0.506C0.331,-0.522 0.361,-0.53 0.393,-0.53C0.435,-0.53 0.468,-0.519 0.492,-0.496C0.516,-0.473 0.528,-0.443 0.528,-0.405C0.528,-0.386 0.524,-0.355 0.515,-0.314L0.449,-0L0.361,-0L0.43,-0.329C0.437,-0.361 0.44,-0.384 0.44,-0.399C0.44,-0.417 0.434,-0.431 0.422,-0.441C0.41,-0.452 0.393,-0.458 0.371,-0.458C0.325,-0.458 0.285,-0.441 0.25,-0.409C0.214,-0.376 0.188,-0.32 0.172,-0.241L0.122,-0L0.033,-0Z" style="fill:#061648;fill-rule:nonzero;"/>
                </g>
                <g transform="matrix(58.3333,0,0,58.3333,910.151,538.812)">
                    <path d="M0.028,0.047L0.118,0.055C0.117,0.075 0.119,0.09 0.125,0.101C0.131,0.111 0.139,0.118 0.151,0.124C0.167,0.131 0.188,0.135 0.213,0.135C0.267,0.135 0.305,0.121 0.329,0.093C0.344,0.075 0.358,0.034 0.371,-0.028L0.38,-0.07C0.334,-0.023 0.285,-0 0.233,-0C0.181,-0 0.137,-0.019 0.102,-0.058C0.066,-0.096 0.049,-0.151 0.049,-0.222C0.049,-0.28 0.063,-0.333 0.091,-0.382C0.118,-0.431 0.152,-0.468 0.19,-0.493C0.228,-0.518 0.268,-0.53 0.309,-0.53C0.377,-0.53 0.429,-0.498 0.466,-0.434L0.483,-0.519L0.564,-0.519L0.46,-0.018C0.449,0.037 0.434,0.08 0.415,0.111C0.396,0.141 0.371,0.165 0.338,0.182C0.305,0.199 0.266,0.208 0.223,0.208C0.181,0.208 0.146,0.202 0.115,0.191C0.085,0.181 0.063,0.165 0.048,0.144C0.033,0.124 0.026,0.1 0.026,0.073C0.026,0.065 0.027,0.056 0.028,0.047ZM0.139,-0.229C0.139,-0.194 0.142,-0.167 0.149,-0.149C0.159,-0.124 0.173,-0.105 0.191,-0.092C0.209,-0.079 0.229,-0.072 0.251,-0.072C0.28,-0.072 0.309,-0.082 0.337,-0.103C0.366,-0.123 0.389,-0.155 0.407,-0.197C0.425,-0.24 0.434,-0.281 0.434,-0.319C0.434,-0.362 0.422,-0.396 0.398,-0.421C0.375,-0.446 0.345,-0.459 0.311,-0.459C0.289,-0.459 0.268,-0.453 0.248,-0.442C0.228,-0.43 0.209,-0.413 0.192,-0.389C0.174,-0.365 0.161,-0.337 0.152,-0.304C0.143,-0.271 0.139,-0.246 0.139,-0.229Z" style="fill:#061648;fill-rule:nonzero;"/>
                </g>
                <g transform="matrix(58.3333,0,0,58.3333,958.8,538.812)">
                    <path d="M0.07,-0.231L0.164,-0.24L0.163,-0.215C0.163,-0.188 0.169,-0.162 0.182,-0.139C0.195,-0.116 0.216,-0.099 0.245,-0.086C0.274,-0.074 0.309,-0.067 0.35,-0.067C0.407,-0.067 0.451,-0.08 0.481,-0.105C0.511,-0.13 0.526,-0.159 0.526,-0.191C0.526,-0.213 0.518,-0.234 0.502,-0.252C0.486,-0.271 0.441,-0.295 0.369,-0.327C0.312,-0.351 0.274,-0.37 0.253,-0.383C0.221,-0.404 0.197,-0.427 0.182,-0.452C0.167,-0.477 0.159,-0.505 0.159,-0.537C0.159,-0.574 0.169,-0.607 0.189,-0.637C0.21,-0.666 0.239,-0.689 0.278,-0.705C0.317,-0.72 0.361,-0.728 0.41,-0.728C0.468,-0.728 0.517,-0.718 0.557,-0.699C0.597,-0.679 0.626,-0.653 0.644,-0.621C0.662,-0.588 0.671,-0.557 0.671,-0.527C0.671,-0.524 0.671,-0.52 0.671,-0.513L0.579,-0.505C0.579,-0.526 0.577,-0.541 0.573,-0.553C0.567,-0.573 0.557,-0.589 0.543,-0.603C0.529,-0.617 0.51,-0.628 0.487,-0.636C0.463,-0.644 0.436,-0.648 0.406,-0.648C0.354,-0.648 0.314,-0.637 0.285,-0.613C0.263,-0.595 0.251,-0.572 0.251,-0.542C0.251,-0.524 0.256,-0.509 0.265,-0.495C0.274,-0.481 0.291,-0.467 0.314,-0.454C0.331,-0.445 0.372,-0.426 0.435,-0.398C0.486,-0.375 0.522,-0.357 0.542,-0.344C0.568,-0.327 0.588,-0.306 0.602,-0.281C0.616,-0.257 0.623,-0.229 0.623,-0.198C0.623,-0.159 0.611,-0.123 0.587,-0.091C0.564,-0.058 0.531,-0.033 0.489,-0.015C0.448,0.003 0.4,0.012 0.346,0.012C0.265,0.012 0.199,-0.005 0.148,-0.041C0.096,-0.076 0.071,-0.14 0.07,-0.231Z" style="fill:#061648;fill-rule:nonzero;"/>
                </g>
                <g transform="matrix(58.3333,0,0,58.3333,997.708,538.812)">
                    <path d="M0.414,-0.176L0.5,-0.167C0.488,-0.125 0.459,-0.084 0.415,-0.046C0.37,-0.007 0.317,0.012 0.256,0.012C0.217,0.012 0.182,0.003 0.15,-0.015C0.118,-0.033 0.094,-0.058 0.077,-0.092C0.06,-0.126 0.052,-0.165 0.052,-0.208C0.052,-0.265 0.065,-0.32 0.091,-0.373C0.117,-0.426 0.151,-0.466 0.193,-0.491C0.235,-0.517 0.28,-0.53 0.328,-0.53C0.39,-0.53 0.439,-0.511 0.476,-0.473C0.513,-0.434 0.532,-0.382 0.532,-0.315C0.532,-0.29 0.529,-0.264 0.525,-0.237L0.143,-0.237C0.142,-0.227 0.141,-0.218 0.141,-0.21C0.141,-0.161 0.152,-0.124 0.175,-0.099C0.197,-0.073 0.224,-0.061 0.256,-0.061C0.287,-0.061 0.316,-0.07 0.346,-0.09C0.375,-0.11 0.398,-0.139 0.414,-0.176ZM0.157,-0.305L0.448,-0.305C0.449,-0.314 0.449,-0.32 0.449,-0.324C0.449,-0.368 0.438,-0.402 0.416,-0.426C0.393,-0.45 0.365,-0.461 0.33,-0.461C0.292,-0.461 0.258,-0.448 0.227,-0.422C0.196,-0.396 0.173,-0.357 0.157,-0.305Z" style="fill:#061648;fill-rule:nonzero;"/>
                </g>
                <g transform="matrix(58.3333,0,0,58.3333,1030.15,538.812)">
                    <path d="M0.24,-0.072L0.225,0C0.204,0.006 0.183,0.009 0.164,0.009C0.128,0.009 0.1,0 0.08,-0.017C0.064,-0.03 0.056,-0.048 0.056,-0.07C0.056,-0.082 0.06,-0.108 0.069,-0.149L0.132,-0.45L0.062,-0.45L0.076,-0.519L0.146,-0.519L0.173,-0.646L0.274,-0.707L0.234,-0.519L0.321,-0.519L0.307,-0.45L0.22,-0.45L0.16,-0.164C0.153,-0.127 0.149,-0.105 0.149,-0.098C0.149,-0.088 0.152,-0.08 0.158,-0.074C0.164,-0.069 0.174,-0.066 0.188,-0.066C0.207,-0.066 0.224,-0.068 0.24,-0.072Z" style="fill:#061648;fill-rule:nonzero;"/>
                </g>
                <g transform="matrix(58.3333,0,0,58.3333,1046.36,538.812)">
                    <path d="M0.387,-0.094C0.325,-0.023 0.261,0.012 0.196,0.012C0.156,0.012 0.124,0 0.099,-0.023C0.075,-0.046 0.063,-0.074 0.063,-0.107C0.063,-0.129 0.068,-0.166 0.079,-0.219L0.142,-0.519L0.23,-0.519L0.161,-0.187C0.155,-0.159 0.152,-0.138 0.152,-0.123C0.152,-0.103 0.158,-0.088 0.17,-0.077C0.182,-0.066 0.199,-0.061 0.222,-0.061C0.247,-0.061 0.271,-0.067 0.295,-0.079C0.318,-0.091 0.339,-0.107 0.356,-0.127C0.373,-0.148 0.387,-0.172 0.397,-0.2C0.405,-0.218 0.413,-0.25 0.422,-0.294L0.469,-0.519L0.558,-0.519L0.449,-0L0.368,-0L0.387,-0.094Z" style="fill:#061648;fill-rule:nonzero;"/>
                </g>
                <g transform="matrix(58.3333,0,0,58.3333,1078.8,538.812)">
                    <path d="M-0.01,0.199L0.14,-0.519L0.221,-0.519L0.206,-0.446C0.236,-0.478 0.263,-0.5 0.287,-0.512C0.311,-0.524 0.337,-0.53 0.363,-0.53C0.413,-0.53 0.454,-0.512 0.486,-0.476C0.519,-0.44 0.535,-0.389 0.535,-0.322C0.535,-0.268 0.526,-0.219 0.508,-0.174C0.49,-0.13 0.468,-0.094 0.442,-0.067C0.416,-0.04 0.39,-0.02 0.363,-0.007C0.337,0.005 0.309,0.012 0.281,0.012C0.219,0.012 0.171,-0.02 0.137,-0.083L0.078,0.199L-0.01,0.199ZM0.165,-0.212C0.165,-0.173 0.167,-0.146 0.173,-0.131C0.181,-0.11 0.194,-0.093 0.213,-0.08C0.231,-0.067 0.253,-0.061 0.277,-0.061C0.328,-0.061 0.369,-0.089 0.4,-0.146C0.432,-0.203 0.447,-0.262 0.447,-0.321C0.447,-0.365 0.437,-0.399 0.416,-0.423C0.395,-0.447 0.369,-0.459 0.337,-0.459C0.315,-0.459 0.294,-0.453 0.275,-0.441C0.256,-0.429 0.238,-0.412 0.221,-0.388C0.205,-0.364 0.191,-0.335 0.181,-0.301C0.17,-0.267 0.165,-0.237 0.165,-0.212Z" style="fill:#061648;fill-rule:nonzero;"/>
                </g>
            </g>
        </g>
    </g>
</svg>
